<svg id="Iconly_Bold_Star" data-name="Iconly/Bold/Star" xmlns="http://www.w3.org/2000/svg" width="15.356" height="14.587" viewBox="0 0 15.356 14.587">
  <g id="Star" transform="translate(0)">
    <path id="Path_754" data-name="Path 754" d="M12.221,9.074a.841.841,0,0,0-.245.745l.682,3.777a.83.83,0,0,1-.345.829.844.844,0,0,1-.9.061l-3.4-1.773a.872.872,0,0,0-.384-.1H7.423a.623.623,0,0,0-.207.069l-3.4,1.782a.9.9,0,0,1-.545.084.853.853,0,0,1-.683-.976L3.27,9.8a.86.86,0,0,0-.245-.752L.253,6.357a.829.829,0,0,1-.207-.867.862.862,0,0,1,.682-.576L4.545,4.36a.853.853,0,0,0,.676-.468L6.9.446A.78.78,0,0,1,7.056.238L7.124.185a.506.506,0,0,1,.124-.1L7.331.054,7.462,0h.323A.862.862,0,0,1,8.46.46l1.7,3.432a.854.854,0,0,0,.637.468l3.815.553a.87.87,0,0,1,.7.576.834.834,0,0,1-.223.867Z" transform="translate(0 0)" fill="#fb0"/>
  </g>
</svg>
