<svg id="star2" xmlns="http://www.w3.org/2000/svg" width="14.605" height="14.587" viewBox="0 0 14.605 14.587">
  <path id="star2-2" data-name="star2" d="M15.1,8.128a1.684,1.684,0,0,0,.4-1.7A1.611,1.611,0,0,0,14.207,5.3l-2.944-.438a.312.312,0,0,1-.239-.179L9.7,1.922A1.585,1.585,0,0,0,8.286,1h0a1.571,1.571,0,0,0-1.439.928L5.521,4.7a.3.3,0,0,1-.239.179l-2.937.457A1.591,1.591,0,0,0,1.059,6.463a1.677,1.677,0,0,0,.4,1.7l2.181,2.155a.325.325,0,0,1,.093.285l-.5,3.05A1.677,1.677,0,0,0,3.9,15.269a1.525,1.525,0,0,0,.928.318,1.591,1.591,0,0,0,.749-.192l2.652-1.445a.3.3,0,0,1,.3,0l2.652,1.432a1.545,1.545,0,0,0,1.677-.133,1.691,1.691,0,0,0,.663-1.624l-.511-3.043a.338.338,0,0,1,.086-.292ZM12.078,9.341a1.711,1.711,0,0,0-.477,1.465l.511,3.05a.318.318,0,0,1-.119.318.3.3,0,0,1-.332,0L9.008,12.742a1.552,1.552,0,0,0-1.485,0L4.871,14.188a.3.3,0,0,1-.332,0,.312.312,0,0,1-.126-.318l.557-3.043a1.711,1.711,0,0,0-.457-1.465L2.371,7.206a.325.325,0,0,1-.053-.332.318.318,0,0,1,.259-.225L5.514,6.2A1.591,1.591,0,0,0,6.681,5.29L8.007,2.512a.309.309,0,0,1,.564-.007L9.9,5.277a1.611,1.611,0,0,0,1.2.9l2.944.438a.3.3,0,0,1,.252.219.318.318,0,0,1-.08.338Z" transform="translate(-0.977 -1)" fill="rgba(0,0,0,0.5)"/>
</svg>
