<svg xmlns="http://www.w3.org/2000/svg" width="313.024" height="392.271" viewBox="0 0 313.024 392.271">
  <g id="undraw_nuxt_js_0fq9" transform="translate(-725.727 -191.468)">
    <path id="Path_244" data-name="Path 244" d="M1113.3,741.87h-286a1,1,0,0,1,0-2h286a1,1,0,0,1,0,2Z" transform="translate(-75.55 -158.13)" fill="#ccc"/>
    <path id="Path_245" data-name="Path 245" d="M835.838,570.965h-12.26l-5.832-47.288H835.84Z" fill="#ffb8b8"/>
    <path id="Path_246" data-name="Path 246" d="M814.821,567.461h23.644v14.887H799.934a14.887,14.887,0,0,1,14.887-14.887Z" fill="#2f2e41"/>
    <path id="Path_247" data-name="Path 247" d="M924.793,557.077l-11.151,5.094-24.954-40.59,16.459-7.517Z" fill="#ffb8b8"/>
    <path id="Path_248" data-name="Path 248" d="M982.467,718.261h23.643v14.887H967.58a14.887,14.887,0,0,1,14.887-14.887Z" transform="translate(-287.852 317.465) rotate(-24.548)" fill="#2f2e41"/>
    <path id="Path_249" data-name="Path 249" d="M910.606,716.626H898.894a4.517,4.517,0,0,1-4.488-4.174l-6.387-170.559a4.5,4.5,0,0,1,4.925-4.8l67.735,7.193a4.5,4.5,0,0,1,4.062,4.394l1.419,75.235a3.49,3.49,0,0,0,.234,1.193l27.785,72.053A4.5,4.5,0,0,1,991.537,703l-11.868,4.373a4.5,4.5,0,0,1-5.557-2.164l-34.133-66.369a4.475,4.475,0,0,1-.4-1.143L933.743,609.6a3.5,3.5,0,0,0-6.9.313L915.077,712.638a4.5,4.5,0,0,1-4.471,3.988Z" transform="translate(-75.55 -158.13)" fill="#2f2e41"/>
    <circle id="Ellipse_178" data-name="Ellipse 178" cx="24.561" cy="24.561" r="24.561" transform="translate(816.327 201.281)" fill="#ffb8b8"/>
    <path id="Path_250" data-name="Path 250" d="M933.371,557.457c-21.726,0-38.737-9.044-44.9-12.831h0a4.47,4.47,0,0,1-2.117-4.138l5.972-85.373a37.011,37.011,0,0,1,16.881-28.652,35.63,35.63,0,0,1,31.8-3.789,25.093,25.093,0,0,1,6.467,3.351c13.231,9.854,19.608,24.694,17.5,40.712-4.38,33.219.582,78.029,1.162,83.029l.042.36-.33.151A77.043,77.043,0,0,1,933.371,557.457Z" transform="translate(-75.55 -158.13)" fill="#ec7580"/>
    <path id="Path_251" data-name="Path 251" d="M964.64,569.652a10.056,10.056,0,0,0,.8-15.4l14.412-32.7-18.309,3.1-10.878,30.577a10.11,10.11,0,0,0,13.974,14.419Z" transform="translate(-75.55 -158.13)" fill="#ffb8b8"/>
    <path id="Path_252" data-name="Path 252" d="M966.018,549.452a4.486,4.486,0,0,1-3.312-1.46l-5.372-5.861a4.523,4.523,0,0,1-1-4.315l12.3-41.647-18.722-39.316a8.309,8.309,0,0,1,14.818-7.511l25.309,41.067a11.451,11.451,0,0,1,.69,10.73L970.125,546.8a4.489,4.489,0,0,1-3.39,2.592,4.562,4.562,0,0,1-.717.057Z" transform="translate(-75.55 -158.13)" fill="#ec7580"/>
    <path id="Path_253" data-name="Path 253" d="M936.674,405.626c-2.547.437-4.643-3.108-4.96-5.6s.592-4.881.691-7.358-1.069-5.488-3.642-6.223c-2.7-.77-5.2,1.394-7.959,1.133-3.848-.363-5.78-4.866-6.246-8.509s-.832-7.957-4.165-10.034-7.432-.564-11.249-.5c-6.452.109-13.019-4.811-14.527-10.882a3.66,3.66,0,0,0,4.174-1.672,3.7,3.7,0,0,0-1.114-4.378l7.313,3.581c-1-2.034.51-4.351,2.588-5.121s4.495-.424,6.788-.068c11.45,1.779,24.713.9,32.308,9.633,5.261,6.047,9.591,17.554,9,25S936.674,405.626,936.674,405.626Z" transform="translate(-75.55 -158.13)" fill="#2f2e41"/>
    <path id="Path_254" data-name="Path 254" d="M806.441,447.5a10.056,10.056,0,0,1,14.453,5.373l35.734-.257-10.111,15.576-32.383-2.143a10.11,10.11,0,0,1-7.692-18.548Z" transform="translate(-75.55 -158.13)" fill="#ffb8b8"/>
    <path id="Path_255" data-name="Path 255" d="M825.035,464.473a4.486,4.486,0,0,1,.754-3.54l4.643-6.455a4.523,4.523,0,0,1,4.021-1.857l41.8-1.751,36.155-21.04A8.309,8.309,0,0,1,922.782,442.8l-35.044,33.152a11.451,11.451,0,0,1-10.364,2.863l-48.908-10.866a4.489,4.489,0,0,1-3.228-2.79,4.576,4.576,0,0,1-.2-.69Z" transform="translate(-75.55 -158.13)" fill="#ec7580"/>
  </g>
</svg>
