<svg xmlns="http://www.w3.org/2000/svg" xmlns:xlink="http://www.w3.org/1999/xlink" width="423" height="457.483" viewBox="0 0 423 457.483">
  <defs>
    <filter id="Rectangle_108" x="103.823" y="0" width="287.444" height="287.444" filterUnits="userSpaceOnUse">
      <feOffset input="SourceAlpha"/>
      <feGaussianBlur stdDeviation="3" result="blur"/>
      <feFlood flood-color="#575757" flood-opacity="0.161"/>
      <feComposite operator="in" in2="blur"/>
      <feComposite in="SourceGraphic"/>
    </filter>
  </defs>
  <g id="undraw_podcast_q6p7000000000" transform="translate(468.721 1008.013) rotate(-140)">
    <path id="Path_164" data-name="Path 164" d="M882.831,537.947s6.826-23.18-1.282-40.244a36.616,36.616,0,0,1-2.961-22.972,61.584,61.584,0,0,1,3.255-10.781" transform="translate(-171.496 -134.745)" fill="none" stroke="#535461" stroke-miterlimit="10" stroke-width="2"/>
    <path id="Path_165" data-name="Path 165" d="M875.555,435.42c0,2.838,5.142,11.079,5.142,11.079s5.142-8.241,5.142-11.079a5.145,5.145,0,0,0-10.289,0Z" transform="translate(-170.255 -117)" fill="#9946b7"/>
    <path id="Path_166" data-name="Path 166" d="M856.669,465.564c1.542,2.365,10.341,6.5,10.341,6.5s-.161-9.712-1.7-12.1a5.145,5.145,0,0,0-8.638,5.592Z" transform="translate(-159.871 -131.411)" fill="#9326b4"/>
    <path id="Path_167" data-name="Path 167" d="M855.229,520.412c2.536,1.277,12.21.4,12.21.4s-5.038-8.3-7.569-9.584a5.144,5.144,0,0,0-4.631,9.187Z" transform="translate(-158.061 -159.365)" fill="#981199"/>
    <path id="Path_168" data-name="Path 168" d="M866.331,563.806c2.285,1.689,11.969,2.455,11.969,2.455s-3.567-9.036-5.847-10.724a5.145,5.145,0,0,0-6.117,8.274Z" transform="translate(-164.3 -182.474)" fill="#bb18b1"/>
    <path id="Path_169" data-name="Path 169" d="M889.433,479.491c-2.039,1.977-11.533,4.031-11.533,4.031s2.327-9.433,4.362-11.41a5.144,5.144,0,1,1,7.167,7.38Z" transform="translate(-171.494 -138.279)" fill="#8e1299"/>
    <path id="Path_170" data-name="Path 170" d="M900.07,528.782c-2.536,1.277-12.21.4-12.21.4s5.038-8.3,7.569-9.584a5.144,5.144,0,0,1,4.631,9.187Z" transform="translate(-176.742 -163.775)" fill="#9c129c"/>
    <path id="Path_171" data-name="Path 171" d="M904.669,579.664c-2.285,1.689-11.969,2.455-11.969,2.455s3.567-9.036,5.847-10.724a5.144,5.144,0,0,1,6.122,8.269Z" transform="translate(-179.292 -190.829)" fill="#e611d4"/>
    <path id="Path_226" data-name="Path 226" d="M839.279,614.345Z" transform="translate(-150.589 -213.272)" fill="#6c63ff"/>
  </g>
  <g transform="matrix(1, 0, 0, 1, 0, 0)" filter="url(#Rectangle_108)">
    <rect id="Rectangle_108-2" data-name="Rectangle 108" width="220" height="220" rx="25" transform="matrix(0.97, -0.26, 0.26, 0.97, 112.82, 65.94)" fill="#fff"/>
  </g>
  <g id="undraw_nuxt_js_0fq9" transform="translate(120.247 -126.256)">
    <circle id="Ellipse_179" data-name="Ellipse 179" cx="2.644" cy="2.644" r="2.644" transform="translate(15.063 265.335)" fill="#fff"/>
    <circle id="Ellipse_180" data-name="Ellipse 180" cx="2.644" cy="2.644" r="2.644" transform="translate(24.791 262.864)" fill="#fff"/>
    <circle id="Ellipse_181" data-name="Ellipse 181" cx="2.644" cy="2.644" r="2.644" transform="translate(34.519 260.392)" fill="#fff"/>
    <path id="Path_268" data-name="Path 268" d="M189.371,545.674a9.13,9.13,0,1,0,15.79-9.17,9.823,9.823,0,0,0-.86-1.22l7.68-54.74.23-1.64,1.56-11.17.23-1.61-.85.04-14.88.68-3.99.18-.5,10.19-2.83,57.29A9.117,9.117,0,0,0,189.371,545.674Z" transform="translate(-75.55 -158.13)" fill="#ffb8b8"/>
    <path id="Path_269" data-name="Path 269" d="M212.167,479.4l-18.895-1.733a3.73,3.73,0,0,1-3.364-4.037l3.5-39.292a14.326,14.326,0,1,1,28.443,3.357l-5.666,38.54a3.724,3.724,0,0,1-3.678,3.181C212.4,479.418,212.282,479.413,212.167,479.4Z" transform="translate(-75.55 -158.13)" fill="#ec7580"/>
    <path id="Path_270" data-name="Path 270" d="M197.848,447.657a26.316,26.316,0,0,1,9.679-30.288c7.125-4.875,16.875-6.625,27.375,5.875,21,25,26.5,52.5,26.5,52.5l-43,7S203.776,464.869,197.848,447.657Z" transform="translate(-75.55 -158.13)" fill="#ec7580"/>
    <path id="Path_271" data-name="Path 271" d="M191.843,571.133H204.1l5.832-47.288H191.841Z" fill="#ffb8b8"/>
    <path id="Path_272" data-name="Path 272" d="M264.766,725.759H303.3v14.887H279.653a14.887,14.887,0,0,1-14.887-14.887h0Z" transform="translate(492.546 1308.262) rotate(179.997)" fill="#2f2e41"/>
    <path id="Path_273" data-name="Path 273" d="M91.049,560.44l11.64,3.848,20.38-43.068-17.18-5.679Z" fill="#ffb8b8"/>
    <path id="Path_274" data-name="Path 274" d="M161.894,720.09h38.531v14.887H176.781a14.887,14.887,0,0,1-14.887-14.887h0Z" transform="translate(49.296 1317.035) rotate(-161.71)" fill="#2f2e41"/>
    <circle id="Ellipse_182" data-name="Ellipse 182" cx="24.561" cy="24.561" r="24.561" transform="translate(124.728 197.718)" fill="#ffb8b8"/>
    <path id="Path_275" data-name="Path 275" d="M246.343,716.1l-11.385-75.145a3.5,3.5,0,0,0-6.862-.3l-17.338,71.612a4.533,4.533,0,0,1-5.088,3.385l-47.825-7.686a4.5,4.5,0,0,1-3.593-5.75l62.361-205.6a3.5,3.5,0,0,0,.061-1.8l-2.076-9a4.483,4.483,0,0,1,2.327-5.014c8.492-4.333,30-13.341,46.231-3.474a4.551,4.551,0,0,1,2.079,2.927l48.716,228.966a4.5,4.5,0,0,1-4,5.419l-58.757,5.262q-.2.018-.4.018a4.508,4.508,0,0,1-4.448-3.826Z" transform="translate(-75.55 -158.13)" fill="#2f2e41"/>
    <path id="Path_276" data-name="Path 276" d="M208.552,363.056a18.58,18.58,0,0,0,4.855-4.22,6.3,6.3,0,0,0,.97-6.1c-1.241-2.738-4.928-3.6-7.786-2.671s-5.065,3.172-7.153,5.333c-1.839,1.9-3.731,3.892-4.6,6.391s-.424,5.668,1.746,7.185c2.13,1.488,5.192.879,7.24-.719s3.316-3.97,4.525-6.27Z" transform="translate(-75.55 -158.13)" fill="#2f2e41"/>
    <path id="Path_277" data-name="Path 277" d="M200.234,356.058c-.136-6.92-8.024-11.883-14.837-10.656s-12.049,7.035-14.67,13.441c-5.538,13.535-1.381,28.979,3.955,42.6s11.94,27.439,11.161,42.043a43.925,43.925,0,0,1-25.515,37c7.688,3.485,16.878-.115,23.339-5.548,14.348-12.065,19.886-33.546,13.161-51.044-3.317-8.631-9.163-16.015-13.727-24.056s-7.913-17.518-5.556-26.459S189.93,357.2,198.5,360.659Z" transform="translate(-75.55 -158.13)" fill="#2f2e41"/>
    <path id="Path_278" data-name="Path 278" d="M226.311,391.308c-2.141-3.618-4.3-8.368-.388-11.531a8.064,8.064,0,0,1,6.05-1.6c4.412.532,9.217.751,13.488-.852a12.644,12.644,0,0,0,7.335-6.591c2.2-5.224-.556-11.572-5.165-14.874a17.4,17.4,0,0,0-19.258-.341c-5.97-2.637-13.213-1.464-18.637,2.166s-9.135,9.443-11.151,15.65a30.206,30.206,0,0,0-.923,16.615,24.692,24.692,0,0,0,15.317,16.879,8.892,8.892,0,0,0,8.782-1.3s3.385-2.955,4.444-6.514C227.019,396.278,227.455,393.241,226.311,391.308Z" transform="translate(-75.55 -158.13)" fill="#2f2e41"/>
    <path id="Path_279" data-name="Path 279" d="M551.3,741.87h-421a1,1,0,0,1,0-2h421a1,1,0,0,1,0,2Z" transform="translate(-249.55 -158.13)" fill="#ccc"/>
    <path id="Path_280" data-name="Path 280" d="M299.173,413.224a10.527,10.527,0,0,0-.239,1.64l-42.957,24.782-10.441-6.011L234.4,448.207l17.45,12.438a8,8,0,0,0,9.6-.234l44.3-34.946a10.5,10.5,0,1,0-6.576-12.241Z" transform="translate(-75.55 -158.13)" fill="#ffb8b8"/>
    <path id="Path_281" data-name="Path 281" d="M254.54,440.82l-13.884,17.994a4.5,4.5,0,0,1-6.8.373l-15.717-16.321a12.5,12.5,0,0,1,15.327-19.745l19.713,11.023a4.5,4.5,0,0,1,1.365,6.676Z" transform="translate(-75.55 -158.13)" fill="#ec7580"/>
  </g>
</svg>
